<?xml version="1.0" standalone="no"?>
<!DOCTYPE svg PUBLIC "-//W3C//DTD SVG 20010904//EN"
 "http://www.w3.org/TR/2001/REC-SVG-20010904/DTD/svg10.dtd">
<svg version="1.0" xmlns="http://www.w3.org/2000/svg"
 width="392.000000pt" height="600.000000pt" viewBox="0 0 392.000000 600.000000"
 preserveAspectRatio="xMidYMid meet">
<metadata>
Created by potrace 1.14, written by Peter Selinger 2001-2017
</metadata>
<g transform="translate(0.000000,600.000000) scale(0.100000,-0.100000)"
fill="#000000" stroke="none">
<path d="M323 5682 c-6 -4 -17 -20 -22 -35 -8 -20 -11 -829 -11 -2668 l0
-2641 29 -29 29 -29 1609 0 c1354 0 1612 2 1628 14 19 13 19 79 23 2688 4
2506 3 2675 -12 2691 -16 16 -127 17 -1639 17 -892 0 -1627 -4 -1634 -8z
m3210 -1877 c0 -995 -1 -2181 -2 -2634 l-1 -824 -1232 6 c-678 4 -1389 7
-1580 7 l-348 0 0 2623 c0 1443 3 2627 7 2630 3 4 716 6 1582 5 l1576 -3 -2
-1810z"/>
<path d="M397 5593 c-4 -3 -7 -1176 -7 -2605 0 -2070 3 -2599 13 -2603 6 -2
708 -5 1560 -7 l1547 -3 0 2220 c0 1221 1 2396 2 2610 l3 390 -1556 3 c-856 1
-1559 -1 -1562 -5z m263 -34 c66 2 150 -15 150 -30 0 -12 -7 -11 -31 2 -21 11
-127 15 -136 5 -13 -13 21 -37 45 -31 27 7 82 -2 82 -13 0 -4 -27 -7 -59 -6
-51 0 -63 4 -80 25 -18 22 -21 23 -36 8 -13 -13 -15 -21 -6 -37 6 -11 11 -25
11 -31 0 -22 -41 -51 -71 -51 -23 0 -30 -4 -27 -17 2 -10 14 -24 28 -31 25
-13 24 -13 -9 -8 -32 6 -33 5 -27 -22 11 -44 64 -79 81 -53 3 5 1 12 -5 16
-15 9 -12 25 4 25 8 0 16 -7 20 -15 10 -27 -5 -45 -36 -45 -20 0 -39 -9 -54
-25 -13 -14 -29 -25 -37 -25 -20 0 -40 27 -33 45 8 23 29 18 23 -6 -4 -16 -1
-20 16 -17 43 6 29 108 -14 108 -21 0 -20 1 5 21 29 23 33 54 11 83 -25 32
-18 74 15 108 28 27 35 30 68 23 20 -5 66 -7 102 -6z m1367 -40 c61 -50 109
-112 152 -196 33 -65 112 -137 197 -179 67 -34 83 -38 153 -38 65 0 86 5 135
30 69 35 125 104 133 164 3 22 10 43 14 46 16 10 9 -57 -10 -96 -18 -38 -18
-40 -2 -40 10 0 26 -9 36 -20 22 -25 61 -23 59 3 -1 9 3 17 8 17 19 0 3 -45
-17 -48 -11 -2 -30 -13 -42 -24 -15 -14 -28 -18 -40 -13 -17 8 -17 8 2 13 31
6 40 19 25 37 -20 24 -54 18 -96 -16 -86 -69 -182 -91 -284 -65 -79 20 -131
50 -203 116 l-55 50 -7 -42 c-15 -89 -52 -128 -122 -128 -30 0 -49 6 -63 20
-22 22 -27 69 -8 88 20 20 66 15 78 -9 9 -16 14 -18 26 -8 18 15 18 74 -2 131
-18 53 -116 168 -144 168 -29 0 -117 -90 -144 -150 -26 -56 -33 -123 -16 -150
9 -13 13 -12 28 6 26 32 48 35 76 13 71 -56 -17 -145 -105 -109 -41 17 -78 75
-80 128 -2 23 -4 42 -6 42 -1 0 -23 -23 -49 -50 -28 -30 -73 -63 -113 -83 -61
-30 -72 -32 -171 -32 -113 0 -139 8 -210 66 -47 39 -100 38 -100 -2 0 -18 10
-23 39 -20 7 2 10 -2 6 -8 -9 -16 -45 -13 -51 3 -3 8 -18 16 -35 20 -22 4 -29
11 -28 28 1 17 2 19 6 6 5 -18 53 -26 53 -9 0 5 14 14 30 21 17 7 30 13 30 14
0 0 -7 19 -15 41 -16 46 -19 75 -6 75 5 0 11 -17 15 -38 13 -83 101 -164 199
-183 141 -27 315 50 384 169 69 121 120 188 182 238 36 30 72 54 80 54 9 0 44
-23 78 -51z m574 11 c5 0 9 6 9 14 0 29 22 27 60 -6 22 -18 55 -46 75 -61 19
-16 35 -34 35 -40 0 -6 -15 3 -32 21 -73 70 -167 79 -232 21 -39 -33 -59 -95
-46 -140 5 -16 5 -29 0 -29 -12 0 -20 27 -20 71 0 36 -2 40 -20 34 -12 -4 -20
-2 -20 5 0 17 47 60 67 60 17 1 17 1 1 11 -19 11 -25 59 -8 59 6 0 20 -10 32
-22 22 -22 23 -22 26 -3 7 45 11 47 38 26 15 -12 31 -21 35 -21z m630 29 c40
-9 61 -8 90 1 43 15 81 8 109 -20 24 -24 26 -77 4 -102 -23 -24 -8 -78 26 -95
19 -10 21 -13 9 -18 -9 -3 -22 -5 -30 -3 -16 4 -35 -61 -26 -86 8 -20 37 -21
37 -1 0 17 16 20 25 5 10 -16 -15 -40 -41 -40 -16 0 -28 8 -36 25 -9 19 -19
25 -45 25 -26 0 -36 5 -42 23 -10 24 3 47 25 47 20 0 17 -28 -3 -32 -16 -3
-15 -6 5 -16 19 -11 25 -10 47 12 29 29 33 58 8 55 -34 -3 -36 1 -9 22 32 25
27 35 -19 43 -41 8 -59 36 -51 78 7 35 -16 49 -42 25 -19 -17 -146 -22 -136
-6 3 5 32 9 64 9 89 0 92 30 3 33 -21 1 -56 -2 -78 -6 -50 -11 -35 11 17 23
18 4 34 8 35 9 1 1 25 -4 54 -10z m-1396 -19 c0 -10 -8 -14 -24 -12 -37 4 -68
-33 -102 -123 -22 -59 -42 -94 -70 -121 -21 -21 -39 -43 -39 -49 0 -19 -42
-52 -47 -37 -7 18 -16 15 -71 -19 -62 -38 -140 -48 -196 -25 -22 9 -37 19 -33
22 3 3 14 1 25 -5 44 -23 106 -7 147 39 11 13 35 29 53 37 27 11 31 17 22 28
-9 11 -7 16 10 25 12 6 31 11 43 10 12 -1 30 -2 39 -1 20 1 98 77 98 94 0 33
52 118 82 137 37 22 63 22 63 0z m292 5 c12 -8 38 -50 58 -93 54 -114 106
-160 166 -147 51 11 95 -15 49 -30 -28 -9 -25 -22 7 -30 14 -3 46 -24 71 -46
38 -33 52 -39 91 -40 41 0 43 -1 21 -10 -45 -19 -125 -5 -181 30 -42 26 -54
29 -66 19 -13 -10 -19 -8 -34 11 -11 13 -19 29 -19 35 0 7 -14 25 -31 42 -18
16 -51 70 -74 119 -45 94 -75 131 -98 122 -19 -7 -41 8 -33 22 10 16 48 14 73
-4z m932 -18 c6 -12 27 -33 46 -46 40 -27 42 -38 15 -106 -23 -61 -26 -47 -4
19 l17 48 -29 23 c-16 13 -31 19 -33 14 -1 -6 -12 -3 -22 7 -10 9 -19 15 -19
12 0 -2 12 -15 27 -29 14 -13 23 -18 18 -10 -5 9 -4 12 2 8 16 -10 8 -65 -13
-89 -11 -12 -14 -18 -7 -15 7 5 9 1 6 -12 -6 -22 -52 -26 -60 -5 -3 7 1 30 7
50 9 26 9 39 1 47 -24 24 -6 107 23 107 7 0 18 -10 25 -23z m-1967 -119 c-15
-15 -16 -42 0 -32 7 4 8 3 4 -4 -4 -7 -13 -12 -20 -12 -8 0 -35 -25 -61 -55
-43 -51 -50 -55 -90 -55 -26 0 -47 6 -55 15 -18 22 -32 18 -20 -5 13 -24 6
-40 -18 -41 -9 0 -2 -5 17 -10 18 -6 31 -13 27 -16 -12 -12 15 -41 46 -47 l33
-7 -39 -20 c-32 -18 -42 -19 -67 -9 -16 7 -26 16 -23 21 3 5 1 9 -3 9 -5 0 -9
10 -10 21 -2 28 -12 37 -22 20 -6 -9 -18 -11 -35 -7 -14 3 -26 3 -26 -1 1 -5
23 -32 50 -62 l49 -54 63 27 c35 15 71 31 81 37 12 6 17 6 17 -3 0 -14 -107
-81 -158 -99 -18 -6 -38 -9 -46 -6 -7 3 -32 33 -55 67 -29 45 -41 73 -41 99 0
40 15 62 36 54 8 -3 14 1 14 10 0 8 7 20 15 27 11 9 15 9 15 1 0 -7 5 -9 10
-6 6 3 10 16 10 27 0 20 3 21 90 15 l90 -7 37 33 c21 17 41 37 46 44 11 18 38
43 45 43 3 0 1 -5 -6 -12z m1788 -57 c58 -56 64 -59 93 -50 18 5 55 9 83 9 45
0 52 -3 58 -22 5 -19 8 -21 16 -8 7 11 10 11 10 2 0 -7 15 -19 34 -27 56 -23
61 -65 17 -140 -35 -60 -76 -105 -96 -105 -21 0 -64 20 -112 52 -23 15 -54 33
-68 38 -23 9 -25 13 -15 25 10 12 16 13 27 3 14 -11 108 -54 146 -65 9 -3 17
0 17 6 0 6 18 31 40 55 22 24 40 49 39 57 0 10 -2 11 -6 2 -2 -7 -16 -13 -29
-13 -13 0 -24 6 -25 13 0 6 -4 1 -10 -11 -5 -13 -6 -29 -2 -34 3 -6 2 -8 -4
-5 -6 4 -15 -4 -21 -18 l-11 -24 -51 18 c-61 21 -69 28 -44 38 10 4 32 19 47
35 16 15 38 28 50 29 l22 0 -22 9 c-27 11 -28 18 -6 42 9 10 11 18 6 18 -6 0
-16 -7 -23 -15 -8 -10 -30 -15 -65 -15 -48 0 -55 3 -78 34 -15 19 -40 48 -57
65 -18 17 -26 31 -20 31 10 0 9 4 0 15 -27 33 1 12 60 -44z m-2237 -280 c15
-10 35 -27 43 -39 8 -11 24 -22 36 -24 29 -4 34 -25 6 -24 -17 1 -24 -5 -26
-22 -2 -12 -7 -20 -12 -17 -5 3 -7 12 -4 20 9 22 -24 81 -52 94 -75 34 -154
-11 -154 -87 0 -52 31 -92 71 -92 46 0 69 17 69 50 0 30 -14 48 -25 30 -8 -13
-25 -3 -25 16 0 19 35 18 54 -2 24 -23 19 -62 -10 -91 -21 -21 -32 -25 -65
-20 -44 6 -46 0 -23 -45 15 -30 17 -31 30 -13 7 10 15 23 17 29 2 6 7 8 11 4
4 -3 0 -21 -9 -38 -14 -27 -15 -37 -4 -62 14 -35 19 -31 50 50 13 34 27 62 31
62 12 0 11 -4 -24 -86 l-32 -76 37 -74 c20 -41 32 -74 27 -74 -6 0 -22 25 -37
55 -15 30 -30 55 -33 55 -3 0 -19 -39 -35 -87 -16 -49 -30 -81 -32 -73 -2 8
10 55 26 103 25 72 28 92 19 112 -6 14 -15 22 -19 19 -18 -10 -68 -195 -88
-322 -25 -161 -27 -330 -5 -454 16 -83 16 -91 0 -106 -15 -16 -16 -15 -10 15
3 17 -2 78 -11 135 -20 118 -17 232 11 426 17 111 17 123 2 161 -9 23 -12 41
-7 41 5 0 14 -12 20 -27 10 -27 13 -23 45 70 l34 97 -20 40 c-11 22 -22 40
-24 40 -3 0 -5 -27 -5 -60 0 -69 -4 -80 -32 -80 -14 0 -19 5 -17 18 2 10 11
16 21 14 16 -3 18 5 16 75 -2 82 -15 137 -30 127 -5 -3 -9 10 -9 28 0 23 3 29
9 19 7 -10 11 -6 15 15 19 81 112 120 179 75z m2262 -18 c11 -21 29 -42 40
-48 11 -6 32 -19 47 -29 22 -14 38 -17 73 -12 39 6 45 5 45 -11 0 -53 63 -82
102 -46 17 15 18 15 18 -10 0 -16 -8 -32 -20 -39 -30 -19 -24 -43 20 -87 32
-31 40 -47 40 -75 0 -43 -8 -45 -40 -11 -13 14 -29 25 -35 25 -7 0 -24 9 -38
20 -32 25 -37 25 -37 -2 0 -50 -63 -76 -102 -41 -18 16 -18 17 14 27 20 7 38
22 46 39 17 36 11 43 -20 23 -27 -18 -75 -11 -59 8 14 17 32 66 23 64 -4 -1
-15 2 -25 7 -32 14 -57 -21 -57 -80 0 -97 89 -195 176 -195 32 0 49 6 64 22
11 12 20 25 20 30 0 4 5 8 10 8 18 0 10 -57 -11 -76 -12 -11 -42 -21 -72 -24
l-52 -6 75 -13 c126 -21 179 -40 218 -76 32 -30 34 -34 16 -35 -11 0 -62 20
-114 45 -102 50 -131 54 -48 7 86 -48 144 -106 180 -179 28 -58 33 -79 36
-162 4 -90 1 -103 -32 -196 -52 -145 -46 -211 19 -203 29 3 48 28 21 28 -22 0
-28 16 -12 30 12 9 18 6 32 -16 18 -26 18 -27 -9 -49 -48 -42 -98 -6 -107 78
l-5 52 -57 -80 c-77 -107 -122 -213 -121 -285 0 -99 43 -150 126 -150 38 0 53
5 72 25 66 65 -19 180 -87 118 -18 -16 -24 -44 -11 -56 3 -4 14 0 24 9 19 17
35 4 25 -21 -7 -20 -35 -19 -58 2 -39 35 -7 91 57 100 40 5 40 6 37 42 -5 51
27 91 73 91 28 0 37 -6 49 -27 20 -40 5 -73 -33 -73 -30 0 -45 18 -31 40 10
16 30 4 30 -17 0 -13 3 -13 15 -3 19 16 19 25 -1 44 -39 40 -89 4 -81 -58 7
-67 37 -120 70 -124 15 -2 27 -8 27 -13 0 -5 -6 -9 -12 -8 -29 3 -39 -2 -57
-32 l-20 -32 42 -21 c57 -29 68 -65 33 -115 -33 -47 -33 -60 -1 -53 27 5 28 3
19 -22 -8 -20 -38 -21 -54 -1 -10 12 -10 21 -1 41 10 23 9 26 -8 31 -34 9 -38
53 -5 53 8 0 14 -9 14 -21 0 -23 18 -21 34 4 8 12 8 22 0 35 -19 30 -56 42
-132 42 -105 0 -153 35 -172 124 -5 24 -11 30 -27 28 -12 -2 -24 2 -28 8 -3 5
2 10 13 10 25 0 35 14 51 70 7 25 24 66 37 93 14 26 21 47 16 47 -15 0 -178
-173 -196 -207 -29 -57 -16 -133 24 -133 27 0 52 28 45 51 -8 23 10 26 19 3 8
-21 -17 -60 -44 -69 -27 -9 -68 18 -76 50 -9 38 5 96 34 138 24 36 25 40 9 48
-26 15 -20 26 13 21 24 -3 40 5 90 48 63 56 73 72 40 63 -11 -3 -41 0 -66 6
-25 7 -54 9 -65 6 -25 -8 -40 -37 -29 -55 8 -13 12 -12 24 5 14 19 15 19 22 2
9 -25 -9 -41 -40 -33 -22 5 -26 12 -26 41 0 52 36 67 122 53 59 -11 68 -10
112 11 26 13 45 25 43 27 -2 2 -25 0 -51 -5 -93 -17 -181 24 -217 103 -31 69
-24 163 33 402 17 72 28 139 25 148 -4 9 -16 16 -27 16 -24 0 -25 -6 -4 -27
18 -19 4 -39 -21 -29 -11 4 -15 15 -13 32 4 34 31 53 55 38 37 -23 37 -38 4
-175 -41 -175 -41 -173 -32 -163 4 5 16 41 25 79 32 128 79 275 88 275 13 0
10 -10 -26 -116 -33 -98 -52 -164 -43 -154 2 3 28 58 57 123 29 64 56 117 61
117 16 0 10 -21 -25 -89 -19 -36 -49 -95 -66 -131 l-31 -65 32 38 c17 20 37
37 43 37 7 0 -5 -19 -26 -42 -22 -24 -43 -42 -46 -41 -7 2 -31 -36 -32 -50 0
-5 16 1 36 13 31 20 44 22 101 16 54 -6 69 -4 84 10 16 15 19 15 19 2 0 -9 -6
-21 -14 -27 -12 -10 -11 -18 11 -49 36 -54 28 -114 -21 -159 -45 -42 -91 -44
-135 -7 -34 29 -39 58 -15 92 20 28 58 28 78 0 12 -17 19 -19 28 -10 17 17 -5
60 -38 72 -34 13 -70 3 -94 -27 -39 -50 -15 -142 42 -167 86 -36 86 -37 44
-32 -48 6 -81 28 -106 69 -68 111 53 238 150 159 28 -23 30 -80 4 -99 -16 -11
-21 -10 -39 13 -28 36 -59 29 -63 -13 -8 -77 121 -84 156 -8 38 83 -20 165
-118 165 -87 0 -143 -57 -142 -145 0 -59 17 -98 59 -136 49 -46 106 -58 178
-38 l39 11 -32 14 c-44 18 -40 22 14 16 39 -4 49 -1 74 23 15 15 41 55 56 88
23 52 29 79 32 165 2 56 1 102 -3 102 -4 0 -16 -11 -27 -25 -14 -18 -29 -25
-54 -25 -19 0 -34 2 -34 5 0 2 9 19 20 37 12 20 20 51 20 76 0 102 -76 174
-267 253 -42 18 -83 40 -91 50 -9 10 -19 16 -23 13 -9 -5 -83 38 -116 69 -12
11 -20 24 -16 30 3 6 1 7 -5 3 -24 -14 -92 106 -92 163 0 30 0 30 48 24 39 -4
50 -2 65 15 26 29 19 76 -11 80 -28 4 -52 -14 -52 -39 0 -28 -19 -23 -26 6 -4
16 0 34 10 50 34 51 5 23 -39 -39 -46 -65 -75 -88 -75 -61 0 11 -11 15 -37 15
-44 0 -73 24 -73 60 0 32 17 50 46 50 25 0 39 -14 29 -31 -5 -7 -13 -4 -26 7
-17 15 -19 15 -25 0 -9 -24 14 -46 50 -46 34 0 60 22 106 89 27 39 70 60 125
61 36 0 42 -4 60 -37z m475 15 c34 -17 47 -31 55 -56 6 -20 14 -31 22 -28 9 4
13 -5 13 -29 0 -24 -4 -33 -13 -29 -22 8 -37 -42 -37 -126 0 -72 10 -102 23
-67 4 9 7 9 18 -1 11 -10 11 -15 -2 -27 -33 -33 -58 1 -59 80 -1 37 -2 39 -15
21 -21 -28 -19 -49 17 -143 l32 -84 24 28 c24 29 24 25 -1 -39 -8 -20 -8 -46
1 -95 36 -199 38 -328 6 -493 -11 -58 -12 -90 -5 -115 11 -42 -2 -47 -18 -6
-10 23 -9 48 8 137 41 212 18 442 -66 667 -13 37 -26 67 -29 67 -2 0 -8 -9
-14 -20 -8 -14 -3 -45 20 -126 34 -123 33 -114 21 -114 -5 0 -19 37 -31 83
-12 45 -25 85 -29 90 -4 4 -20 -20 -36 -53 -16 -33 -32 -60 -37 -60 -11 0 -12
0 27 84 l35 77 -35 76 c-39 84 -39 83 -26 83 5 0 21 -29 36 -65 16 -36 31 -65
35 -65 17 0 20 51 5 80 -17 34 -18 40 -6 40 5 0 13 -9 16 -20 9 -28 22 -25 40
10 20 39 20 40 -20 33 -29 -5 -41 -1 -60 17 -43 40 -27 118 21 108 29 -5 28
-28 -1 -28 -24 0 -26 -3 -23 -32 6 -63 105 -60 127 4 16 46 14 63 -15 97 -60
71 -184 37 -184 -51 0 -33 -16 -45 -23 -17 -3 11 -15 23 -26 26 -11 3 -18 9
-15 15 3 5 14 6 24 3 13 -4 23 3 36 24 17 29 70 59 104 60 9 1 36 -9 60 -21z
m-2240 -10 c19 -13 48 -43 65 -68 39 -56 73 -70 109 -46 28 18 36 56 12 56 -8
0 -18 -4 -21 -10 -9 -15 -25 -12 -25 4 0 24 39 30 61 10 48 -43 -3 -110 -78
-101 -41 4 -53 -6 -28 -26 6 -5 1 -6 -10 -4 -11 2 -19 9 -17 16 1 7 -2 10 -8
6 -6 -4 -19 13 -30 38 -11 24 -27 51 -37 58 -15 13 -15 11 1 -13 19 -29 14
-68 -9 -68 -8 0 -15 12 -17 28 -2 21 -9 28 -30 30 -22 3 -29 -2 -34 -22 -9
-38 -1 -60 28 -74 23 -11 32 -10 56 2 35 18 42 13 42 -28 -1 -57 -68 -175 -92
-160 -5 3 -7 0 -6 -6 2 -6 -12 -23 -31 -38 -27 -21 -33 -23 -28 -9 4 11 3 16
-3 12 -6 -3 -10 -13 -10 -20 0 -9 -63 -45 -154 -89 -265 -129 -338 -227 -264
-352 15 -26 17 -34 6 -35 -36 -3 -55 5 -81 34 l-29 32 4 -115 c5 -135 27 -199
89 -255 43 -38 73 -44 101 -18 15 13 18 14 18 2 0 -8 -6 -21 -12 -27 -28 -28
35 -41 105 -21 71 19 127 92 127 165 0 38 -22 97 -45 119 -32 32 -90 47 -136
35 -40 -11 -85 -56 -95 -96 -23 -92 87 -164 151 -99 30 29 31 46 6 69 -23 21
-49 12 -57 -20 -7 -29 -18 -30 -44 -4 -35 35 -20 83 34 105 43 18 97 4 126
-32 24 -31 27 -101 5 -143 -17 -33 -81 -70 -117 -69 -17 0 -13 4 16 15 50 18
75 40 93 83 26 60 -8 124 -73 137 -37 7 -84 -27 -84 -61 0 -35 15 -39 35 -9
23 35 75 31 89 -7 14 -42 0 -75 -40 -94 -100 -47 -199 65 -144 163 18 32 20
43 11 61 -12 22 -2 28 16 10 9 -9 20 -9 44 0 17 6 52 11 75 11 24 0 44 4 44
10 0 5 -17 29 -37 52 -21 22 -31 39 -23 36 13 -4 50 -47 88 -104 11 -17 11
-16 1 4 -6 13 -8 30 -5 38 3 9 1 12 -4 9 -10 -6 -130 230 -130 256 0 25 17 -6
71 -129 29 -68 55 -119 57 -114 1 5 -16 68 -38 142 -23 73 -39 135 -36 137 9
9 25 -37 72 -212 25 -93 47 -171 50 -174 12 -12 1 51 -31 175 -19 75 -35 146
-35 158 0 49 58 63 86 21 13 -20 14 -28 4 -40 -15 -18 -36 -20 -45 -4 -4 6 3
13 14 16 29 7 21 28 -10 28 -33 0 -36 -35 -10 -127 30 -106 61 -284 61 -351 0
-113 -73 -187 -186 -187 -25 0 -61 7 -81 15 -49 21 -52 13 -7 -21 36 -28 42
-29 133 -27 76 3 98 0 113 -14 18 -16 23 -49 10 -69 -13 -21 -48 -25 -62 -9
-19 23 3 44 25 25 23 -19 41 1 26 29 -13 23 -35 25 -125 13 l-49 -7 67 -59
c66 -58 67 -58 92 -41 33 21 42 13 14 -15 l-21 -21 27 -55 c43 -87 19 -174
-47 -174 -34 0 -59 23 -59 55 0 23 35 53 47 41 3 -3 -2 -8 -11 -12 -23 -9 -20
-51 4 -64 23 -12 54 0 64 26 11 29 6 78 -13 119 -16 35 -188 212 -197 203 -2
-2 9 -27 23 -56 14 -29 31 -77 38 -105 11 -48 14 -52 43 -55 39 -4 32 -22 -8
-22 -24 0 -31 -5 -36 -27 -20 -84 -76 -123 -178 -123 -79 0 -111 -13 -127 -53
-11 -27 -10 -32 10 -48 26 -22 45 -16 36 11 -8 25 9 34 26 14 11 -14 9 -20
-14 -40 -15 -13 -24 -29 -21 -37 7 -19 -22 -48 -41 -41 -17 7 -21 34 -5 34 6
0 10 -4 10 -10 0 -5 5 -10 10 -10 17 0 11 36 -10 63 -40 50 -17 108 50 128 22
7 40 15 40 20 0 4 -13 21 -30 39 -25 27 -32 30 -51 20 -17 -10 -20 -9 -17 2 3
7 18 14 34 16 25 3 31 10 47 55 30 85 32 112 8 136 -12 12 -29 21 -39 21 -26
0 -54 -33 -46 -54 7 -17 34 -22 34 -6 0 6 5 10 10 10 6 0 10 -9 10 -20 0 -11
-2 -20 -4 -20 -2 0 -11 -3 -19 -6 -42 -16 -64 73 -25 100 31 22 52 20 84 -7
28 -24 35 -62 21 -104 -8 -21 -5 -23 31 -23 39 0 62 -16 75 -53 14 -39 -23
-82 -60 -70 -18 6 -16 43 2 43 8 0 15 -4 15 -10 0 -16 17 -11 24 6 4 9 -1 27
-9 40 -21 32 -77 33 -99 2 -52 -73 43 -156 130 -115 52 25 78 85 71 166 -6 76
-63 198 -127 271 l-39 45 -1 -33 c0 -73 -51 -118 -106 -93 -18 8 -24 18 -24
41 0 33 24 50 43 31 9 -9 6 -13 -11 -17 -25 -7 -27 -15 -10 -32 17 -17 48 -15
70 5 22 20 24 86 4 124 -29 57 -57 153 -62 222 -12 141 46 273 153 347 28 20
62 44 75 54 l23 17 -25 -7 c-14 -3 -56 -22 -94 -40 -71 -35 -96 -41 -96 -25 0
9 52 51 87 69 11 7 65 18 118 26 105 16 132 26 69 26 -59 0 -113 46 -98 84 8
20 24 21 24 1 0 -27 47 -48 94 -43 81 10 157 93 171 188 5 37 3 50 -15 73 -27
34 -45 34 -66 2 -15 -24 -15 -27 0 -44 23 -25 20 -31 -16 -31 -24 0 -29 3 -18
9 8 6 18 7 23 4 5 -3 3 5 -3 18 -18 33 -24 38 -16 12 6 -19 4 -21 -14 -18 -26
5 -36 -18 -22 -50 8 -16 23 -26 48 -31 l38 -7 -23 -18 c-43 -35 -88 -22 -97
27 -3 19 -10 34 -15 34 -5 0 -12 0 -16 0 -5 0 -8 -4 -8 -9 0 -16 -18 -29 -45
-33 -16 -2 -30 -14 -39 -32 -12 -26 -15 -27 -23 -12 -16 28 0 68 43 109 43 42
49 63 19 72 -25 8 -44 41 -36 62 6 14 10 13 29 -6 13 -11 29 -21 36 -21 8 0
11 -8 8 -20 -3 -11 -1 -18 4 -14 5 3 9 12 9 21 0 8 11 24 25 35 14 11 23 23
21 27 -12 19 15 35 57 32 26 -1 50 3 58 11 8 7 28 20 44 28 17 8 37 30 45 47
14 30 19 33 61 33 32 0 57 -7 79 -22z m1564 -19 c-4 -8 -223 -9 -757 -5 -413
3 -753 8 -755 11 -3 3 338 5 757 5 544 0 760 -3 755 -11z m-164 -29 c0 -7
-198 -9 -587 -8 -324 1 -527 5 -453 8 264 10 1040 11 1040 0z m-20 -40 c0 -7
-196 -10 -569 -10 -369 0 -572 4 -576 10 -4 7 188 10 569 10 377 0 576 -3 576
-10z m-355 -311 c341 -105 555 -388 555 -733 0 -120 -18 -201 -65 -303 -64
-138 -161 -252 -277 -326 -76 -49 -159 -89 -166 -82 -9 9 37 46 132 107 143
90 247 223 302 383 36 107 44 267 19 380 -28 126 -95 245 -195 346 -75 76 -99
93 -190 137 -134 64 -188 76 -330 77 -141 0 -196 -13 -328 -76 -200 -97 -347
-281 -393 -494 -18 -83 -16 -236 4 -315 71 -277 299 -490 575 -539 31 -6 97
-12 145 -13 73 -2 87 -4 85 -17 -3 -12 -20 -17 -73 -19 -138 -7 -294 33 -418
106 -78 46 -221 189 -266 264 -79 135 -120 333 -100 479 25 175 88 305 209
428 120 123 274 205 430 231 89 15 265 4 345 -21z m-73 -74 c291 -61 509 -296
536 -577 22 -219 -48 -411 -203 -563 -69 -67 -135 -115 -135 -98 0 5 13 17 29
26 89 52 196 179 245 290 153 347 -25 757 -382 882 -146 51 -274 55 -424 14
-283 -79 -479 -334 -479 -625 0 -188 61 -335 195 -469 131 -130 284 -195 463
-195 60 0 82 -3 77 -11 -9 -15 -158 -4 -240 16 -33 9 -97 34 -144 57 -157 77
-292 241 -346 423 -24 81 -24 255 0 345 50 184 185 344 361 430 136 66 301 86
447 55z m-1060 -1572 c-1 -868 -4 -1589 -6 -1603 -1 -14 -4 696 -5 1578 0 881
2 1602 7 1602 4 0 6 -710 4 -1577z m1848 -22 c0 -1056 -3 -1602 -10 -1606 -7
-4 -10 532 -10 1599 0 1064 3 1606 10 1606 7 0 10 -540 10 -1599z m-1880 -1
c0 -1058 -3 -1580 -10 -1580 -7 0 -10 510 -9 1548 0 1400 2 1612 15 1612 2 0
4 -711 4 -1580z m1915 1 c0 -869 -3 -1583 -7 -1587 -5 -4 -8 707 -8 1579 0
873 3 1587 8 1587 4 0 7 -711 7 -1579z m-1957 -3 c-2 -1164 -4 -1381 -8 -848
-6 807 -2 2410 5 2410 3 0 4 -703 3 -1562z m1992 -3 c0 -1039 -3 -1565 -10
-1565 -7 0 -9 525 -8 1565 1 861 6 1565 10 1565 4 0 8 -704 8 -1565z m-1174
1447 c12 -6 29 -24 39 -39 14 -21 15 -25 3 -15 -13 10 -17 10 -22 -4 -6 -16
-18 -14 -18 3 0 12 -19 33 -31 33 -6 0 -2 -7 9 -16 17 -14 17 -15 1 -10 -11 3
-16 2 -12 -4 3 -6 1 -10 -6 -10 -17 0 -5 -11 18 -15 10 -2 19 -4 21 -4 1 -1
-2 -10 -8 -21 -9 -17 -14 -19 -33 -8 -19 10 -20 9 -10 -4 7 -8 9 -19 5 -23 -4
-5 -1 -5 6 0 11 6 12 3 3 -12 -6 -11 -7 -23 -4 -27 3 -3 -1 -6 -10 -6 -22 0
-40 37 -34 70 5 23 0 31 -31 51 -30 19 -38 31 -40 60 l-3 35 68 -11 c38 -7 78
-17 89 -23z m506 8 c-5 -39 -29 -68 -61 -75 -25 -5 -29 -11 -29 -40 0 -40 -8
-55 -29 -55 -10 0 -13 6 -9 16 3 8 2 13 -3 10 -4 -3 -16 13 -26 35 -15 32 -16
42 -6 52 11 10 12 8 7 -8 -10 -35 7 -45 28 -16 l20 26 -22 -19 c-29 -25 -28
-10 0 23 13 14 16 20 8 14 -20 -18 -35 -16 -20 2 15 18 0 20 -19 3 -12 -11
-13 -10 -7 6 5 16 4 17 -9 6 -17 -14 -21 -35 -5 -25 13 8 13 -5 0 -25 -8 -12
-10 -12 -11 5 l0 20 -9 -20 c-5 -11 -9 -14 -9 -7 -2 23 27 67 51 79 40 20 52
22 108 20 52 -2 55 -3 52 -27z m-317 -107 c-5 -28 6 -29 30 -3 27 30 44 25 92
-25 60 -63 62 -79 17 -164 -20 -39 -40 -71 -44 -71 -8 0 -3 40 11 90 9 30 6
43 -15 90 -15 33 -25 47 -25 34 -1 -11 -7 -29 -15 -40 -13 -16 -18 -17 -35 -6
-12 7 -21 8 -21 3 0 -15 30 -29 50 -24 13 3 19 -4 24 -29 3 -18 3 -34 -2 -36
-5 -1 -7 -13 -5 -26 5 -26 -15 -36 -80 -36 -44 0 -72 12 -81 35 -3 9 -2 13 4
10 6 -3 10 -1 10 4 0 6 -7 11 -15 11 -8 0 -15 5 -15 11 0 6 6 9 13 6 8 -3 14
1 14 8 0 7 -7 11 -15 8 -12 -5 -12 -2 -3 15 7 13 21 22 35 22 13 0 30 7 37 17
13 15 12 15 -8 5 -32 -17 -42 -15 -54 12 -11 24 -12 24 -35 -22 l-24 -47 20
-52 c12 -32 16 -55 10 -58 -6 -3 -14 4 -19 17 -5 13 -19 32 -31 43 -36 33 -40
48 -24 100 25 83 77 124 155 122 44 -2 48 -4 44 -24z m-53 -290 c19 -17 25
-53 8 -53 -5 0 -7 -6 -4 -14 3 -7 -1 -20 -8 -27 -8 -8 -17 -23 -21 -33 -4 -10
-10 -16 -13 -13 -11 11 -46 -36 -48 -64 -1 -16 1 -29 5 -29 7 0 3 -79 -4 -87
-3 -2 -1 -19 3 -38 6 -28 4 -37 -16 -56 -28 -26 -41 -20 -24 11 9 17 6 43 -15
129 l-27 108 30 59 c29 58 86 124 106 124 5 0 18 -7 28 -17z m139 -10 c47 -40
94 -154 72 -176 -4 -4 -8 -26 -10 -50 -2 -23 -8 -61 -13 -85 -7 -30 -7 -49 1
-63 13 -24 -5 -54 -19 -32 -5 7 -19 9 -42 4 l-35 -7 -7 -81 c-7 -84 -34 -199
-49 -209 -19 -11 -59 143 -59 225 0 39 -4 52 -22 64 -19 13 -20 16 -5 16 9 1
17 2 18 4 0 1 3 25 5 52 7 66 29 173 44 210 11 28 12 29 25 12 14 -20 30 -101
41 -209 7 -66 8 -68 34 -68 23 0 29 5 34 32 3 18 -1 56 -10 89 -13 46 -14 64
-5 91 8 22 8 34 1 36 -5 2 -8 7 -5 12 3 4 -3 7 -13 6 -11 -1 -16 6 -15 17 0
10 -1 16 -4 13 -10 -10 -35 25 -44 62 -14 65 26 82 82 35z m-746 -573 c3 -5
-14 -44 -39 -87 -140 -243 -138 -535 4 -769 32 -52 38 -70 29 -80 -9 -11 -15
-11 -25 -3 -27 22 -95 160 -120 246 -22 75 -26 107 -26 213 0 179 36 306 125
448 27 42 41 50 52 32z m1336 -33 c40 -64 79 -153 102 -237 16 -58 21 -103 20
-200 0 -149 -22 -242 -83 -358 -54 -103 -75 -130 -91 -115 -9 9 1 32 39 100
79 138 97 209 97 383 -1 132 -3 152 -28 224 -27 77 -90 200 -107 211 -12 7 -1
35 14 35 6 0 23 -19 37 -43z m-116 -76 c-13 -13 -283 -186 -367 -236 -37 -22
-68 -44 -68 -48 0 -4 9 -3 21 3 11 7 23 9 26 7 2 -3 -5 -8 -16 -12 -12 -3 -21
-10 -21 -15 0 -5 105 27 233 72 252 87 277 95 277 82 0 -5 -113 -45 -250 -89
-249 -80 -264 -87 -242 -121 5 -8 93 -16 261 -23 140 -6 257 -13 259 -16 14
-14 -21 -14 -214 0 -115 8 -234 14 -264 14 l-55 -1 50 -14 50 -14 -50 5 c-70
8 -42 -7 90 -45 215 -61 365 -112 365 -122 0 -5 -7 -8 -15 -4 -64 24 -487 157
-490 154 -5 -5 242 -118 443 -204 18 -7 31 -18 28 -23 -4 -5 -110 40 -237 100
-328 155 -328 149 -2 -47 180 -108 218 -134 195 -134 -6 0 -93 52 -194 116
-263 166 -259 164 -249 183 9 16 8 98 -2 153 -4 20 2 32 21 50 l27 23 -24 -27
c-46 -53 -41 -50 259 147 128 83 185 115 155 86z m-1664 -86 c55 -52 73 -123
48 -194 -17 -49 -71 -68 -103 -35 -24 23 -20 53 9 64 34 13 43 55 18 88 -17
23 -29 27 -74 30 -47 2 -59 -1 -96 -28 -46 -34 -140 -152 -149 -187 -8 -29 35
-90 118 -170 74 -70 116 -85 166 -59 33 17 42 34 42 78 0 24 -6 32 -30 41 -32
12 -38 32 -17 61 20 27 75 18 101 -17 26 -35 27 -117 3 -164 -38 -72 -135
-102 -222 -69 -51 20 -136 106 -209 213 l-49 72 24 38 c35 58 124 175 156 204
55 52 102 71 170 67 53 -3 68 -9 94 -33z m2370 10 c57 -29 113 -84 174 -170
86 -122 84 -101 19 -196 -104 -156 -192 -223 -291 -224 -98 0 -171 81 -160
181 6 58 28 96 61 107 33 11 64 -12 68 -53 2 -19 -2 -26 -20 -28 -51 -8 -49
-84 3 -118 36 -24 98 -13 144 24 20 17 35 36 33 42 -1 6 2 9 7 6 10 -6 68 61
100 116 l21 34 -28 45 c-39 61 -89 117 -136 151 -54 39 -125 40 -155 2 -12
-15 -21 -36 -21 -47 0 -24 27 -57 47 -57 18 0 17 -45 -3 -64 -23 -24 -52 -19
-85 13 -25 26 -29 37 -29 88 0 147 117 216 251 148z m-1231 -180 c42 -22 60
-53 60 -105 0 -65 -31 -100 -93 -107 -86 -10 -137 32 -137 112 0 86 92 140
170 100z m-196 -164 l15 -28 -97 -63 c-271 -176 -344 -222 -349 -217 -2 3 6
12 19 20 12 8 97 62 188 119 91 57 181 114 200 126 81 51 -5 15 -220 -93 -126
-63 -232 -110 -235 -105 -3 5 34 27 82 50 313 146 392 185 377 189 -14 2 -14
5 -3 12 8 5 9 9 3 9 -14 0 -479 -95 -503 -103 -3 -1 -7 3 -8 8 -1 6 53 21 120
33 67 13 174 34 237 47 153 31 157 31 174 -4z m1671 -61 c0 -10 -8 -14 -22
-13 -31 4 -30 -30 1 -54 34 -26 39 -53 16 -90 -13 -22 -32 -36 -60 -44 -22 -7
-40 -15 -40 -18 0 -4 13 -22 29 -41 27 -32 31 -34 51 -22 28 17 36 10 14 -13
-9 -9 -26 -14 -36 -11 -35 9 -88 -143 -64 -183 5 -7 19 -17 33 -22 48 -18 95
35 61 69 -18 18 -28 15 -28 -8 0 -11 -7 -20 -15 -20 -19 0 -20 34 0 50 21 18
48 8 63 -22 11 -23 10 -32 -3 -58 -22 -43 -76 -45 -114 -3 -19 22 -22 34 -18
70 4 41 4 43 -22 41 -66 -4 -103 38 -81 92 18 43 80 55 80 15 0 -20 -19 -28
-35 -15 -34 29 -48 -27 -15 -60 27 -27 56 -25 85 5 56 56 10 145 -74 145 -50
0 -85 -28 -107 -85 -32 -86 9 -227 102 -345 26 -33 51 -60 55 -60 5 0 9 15 9
33 0 36 20 71 51 88 48 25 114 -41 77 -77 -15 -15 -48 -10 -48 8 0 5 9 12 20
15 26 7 25 19 0 33 -31 17 -60 2 -76 -37 -17 -39 -16 -43 31 -163 41 -102 50
-165 37 -245 -24 -144 -87 -236 -208 -306 -94 -53 -57 -46 68 14 77 37 108 45
108 27 0 -14 -80 -65 -125 -80 -22 -8 -71 -19 -110 -26 -45 -7 -58 -12 -37
-13 39 -1 92 -48 92 -80 0 -29 -12 -26 -38 9 -24 32 -65 40 -115 21 -38 -15
-96 -70 -118 -112 -40 -79 -12 -187 42 -159 28 16 34 38 15 59 -22 24 -20 31
9 31 14 0 25 -4 25 -10 0 -5 9 -10 20 -10 15 0 20 7 20 25 0 28 -41 61 -65 51
-8 -3 -15 0 -15 7 0 22 23 37 57 37 26 0 36 -6 48 -30 8 -16 15 -37 15 -46 0
-16 2 -16 18 -2 19 18 93 52 105 49 5 -1 6 3 3 8 -3 5 -3 17 0 26 5 13 8 14
15 3 21 -32 9 -67 -37 -112 l-46 -46 31 -35 c33 -39 35 -43 22 -63 -6 -11 -14
-8 -34 12 -21 21 -30 24 -50 17 -14 -6 -28 -7 -33 -3 -4 4 -4 2 -1 -4 4 -6 1
-25 -6 -43 -11 -30 -13 -31 -54 -25 -32 5 -48 2 -70 -13 -15 -10 -40 -25 -54
-32 -14 -7 -32 -27 -40 -44 -11 -26 -21 -33 -48 -35 -47 -5 -85 14 -127 62
-20 22 -45 51 -56 64 -24 26 -64 29 -90 5 -22 -20 -23 -31 -1 -55 16 -18 16
-18 0 -12 -42 16 -48 70 -12 104 20 19 32 22 65 17 l41 -5 -16 24 c-14 22 -14
24 0 24 18 0 65 -47 65 -64 0 -6 10 -22 23 -36 12 -14 18 -20 14 -14 -13 20
-4 58 15 62 12 2 17 -5 20 -25 4 -35 37 -42 63 -13 38 42 -25 97 -81 71 -14
-6 -30 -8 -35 -5 -14 8 -1 80 21 124 20 39 89 114 98 106 3 -3 12 3 19 14 8
11 18 18 22 15 5 -2 16 4 26 15 25 28 43 25 19 -3 -10 -13 -5 -9 11 9 17 17
81 57 144 88 151 76 185 100 221 154 36 55 40 118 11 174 -11 19 -17 39 -14
42 15 15 44 3 71 -30 l29 -35 7 32 c26 134 -26 304 -111 361 -35 22 -57 23
-78 2 -22 -22 -33 -9 -12 14 23 25 13 32 -45 32 -60 0 -118 -28 -149 -72 -33
-46 -38 -141 -10 -186 41 -64 119 -89 181 -57 105 54 89 205 -21 205 -60 0
-101 -54 -67 -88 20 -20 48 -14 60 13 17 39 52 30 56 -13 10 -103 -136 -126
-181 -29 -28 58 -17 106 35 155 30 28 88 46 102 32 7 -7 1 -10 -15 -10 -29 0
-88 -40 -106 -73 -34 -61 10 -147 75 -147 35 0 82 34 82 60 0 31 -20 33 -45 6
-53 -57 -117 23 -67 84 10 13 33 23 58 27 37 5 46 2 80 -30 35 -32 39 -40 39
-85 0 -34 -6 -56 -18 -70 -18 -19 -18 -22 -2 -46 18 -26 9 -36 -13 -14 -9 9
-23 9 -62 -1 -39 -10 -57 -10 -85 -1 -20 7 -39 10 -42 7 -3 -3 16 -28 41 -55
25 -27 46 -53 46 -57 0 -16 -62 50 -87 93 -26 44 -45 53 -22 10 11 -21 11 -22
-6 -8 -17 14 -17 12 -10 -30 4 -25 18 -81 31 -124 37 -124 28 -171 -31 -164
-27 3 -30 7 -30 38 0 28 4 36 21 38 28 4 40 -25 13 -33 -21 -7 -25 -20 -9 -30
18 -11 40 15 40 46 0 15 -11 72 -24 126 -42 169 -58 293 -45 355 26 120 160
181 272 123 33 -17 35 -6 5 22 -34 31 -96 44 -177 37 -80 -8 -101 2 -101 46 0
35 31 64 59 55 12 -3 21 -15 21 -26 0 -21 -20 -25 -37 -8 -6 6 -16 8 -22 5
-18 -12 -12 -35 14 -52 20 -13 32 -14 75 -5 28 6 63 8 78 5 23 -5 16 4 -38 55
-57 54 -69 61 -97 57 -36 -5 -41 1 -18 18 13 10 12 17 -10 60 -46 92 -26 186
39 186 52 0 76 -65 34 -94 -26 -19 -39 -11 -14 7 23 17 18 61 -7 65 -57 11
-77 -88 -33 -162 21 -36 186 -197 186 -181 0 3 -11 27 -24 53 -13 26 -27 67
-31 92 -9 55 -20 70 -52 70 -14 0 -22 4 -18 11 4 5 18 9 32 7 23 -3 27 2 40
42 26 88 60 110 168 110 84 0 114 11 135 51 14 25 -4 59 -30 59 -15 0 -19 -6
-17 -22 1 -15 -3 -23 -13 -23 -21 0 -24 39 -5 55 8 7 15 24 15 39 0 15 6 33
12 39 17 17 53 11 53 -8z m-2997 -35 c2 -16 11 -34 19 -40 19 -14 13 -50 -7
-50 -10 0 -14 8 -13 23 2 13 -3 22 -11 22 -22 0 -39 -28 -32 -55 9 -37 54 -55
138 -55 107 0 152 -34 173 -128 5 -26 11 -32 25 -27 10 3 21 1 25 -5 3 -5 -2
-10 -13 -10 -26 0 -38 -17 -45 -63 -3 -21 -18 -63 -32 -95 l-26 -57 91 90
c103 102 120 127 120 184 0 45 -22 74 -54 69 -31 -4 -35 -55 -5 -66 12 -5 18
-12 12 -15 -5 -3 -20 1 -32 9 -30 22 -25 63 11 83 25 14 29 14 54 -5 55 -41
54 -117 -3 -185 l-27 -31 25 -18 24 -19 -42 6 c-41 5 -44 4 -105 -55 l-63 -61
43 6 c23 3 62 0 87 -7 52 -15 75 -4 75 36 0 26 -10 30 -28 12 -9 -9 -15 -9
-23 -1 -16 16 -2 33 25 33 29 0 46 -18 46 -51 0 -44 -20 -52 -109 -44 -94 8
-135 -2 -176 -45 -34 -35 -31 -36 26 -10 56 25 110 25 157 1 69 -36 112 -104
112 -179 0 -56 -36 -252 -66 -360 -21 -74 -24 -95 -14 -107 7 -8 18 -15 26
-15 22 0 28 22 9 37 -14 10 -16 16 -7 25 16 16 42 -7 42 -37 0 -50 -65 -60
-87 -14 -11 22 -10 36 6 85 23 76 54 214 48 220 -2 3 -26 -72 -52 -166 -26
-94 -52 -173 -56 -176 -15 -9 -10 14 32 147 23 72 40 132 37 134 -2 2 -17 -26
-33 -63 -63 -147 -88 -196 -92 -186 -2 7 21 65 52 129 30 65 54 120 52 122 -2
2 -12 -6 -22 -17 -10 -11 -23 -20 -28 -20 -6 0 2 13 18 30 15 16 32 27 36 24
5 -3 6 2 3 10 -3 8 3 19 15 26 28 14 27 31 -1 22 -13 -3 -59 -6 -103 -7 -44 0
-86 -4 -92 -8 -16 -10 -17 5 -2 20 7 7 4 20 -10 44 -12 20 -21 51 -21 75 0
102 131 162 190 87 24 -31 25 -51 4 -81 -20 -28 -68 -30 -87 -2 -8 11 -17 17
-20 13 -14 -13 -6 -40 17 -62 20 -19 32 -22 59 -17 51 9 72 39 72 98 0 44 -4
53 -37 84 -26 23 -47 34 -68 34 -16 0 -30 5 -30 11 0 23 73 0 107 -33 47 -45
61 -98 40 -143 -42 -87 -160 -93 -181 -9 -8 32 9 64 35 64 11 0 18 -4 15 -9
-3 -4 1 -16 8 -27 12 -16 18 -16 40 -6 32 14 34 49 5 81 -18 19 -29 22 -61 18
-74 -10 -111 -74 -83 -143 23 -56 59 -79 122 -79 86 0 143 62 143 155 0 116
-108 197 -224 167 -28 -8 -28 -8 -10 -29 19 -21 19 -21 -3 -9 -34 18 -50 13
-92 -24 -56 -51 -83 -121 -89 -232 -2 -50 -2 -99 2 -109 6 -15 10 -14 34 9 52
50 83 32 51 -29 -14 -27 -19 -50 -15 -74 3 -19 7 -44 8 -55 4 -25 83 -102 131
-127 22 -10 36 -22 33 -25 -9 -9 -113 58 -157 102 -55 54 -79 103 -95 199 -18
101 -7 193 36 300 35 90 37 114 9 150 -22 28 -48 33 -67 14 -17 -17 -15 -28 8
-36 12 -5 16 -12 11 -20 -9 -15 -37 -6 -45 14 -6 16 10 54 28 66 21 14 47 8
71 -17 19 -18 25 -35 25 -70 0 -25 3 -45 8 -44 13 1 86 103 118 166 37 74 59
168 51 219 -14 85 -102 143 -167 109 -79 -41 -62 -155 24 -155 37 0 60 19 54
47 -3 13 -11 17 -32 15 -22 -2 -27 1 -24 15 5 24 35 28 59 7 43 -39 8 -104
-56 -104 -35 0 -36 -1 -30 -34 9 -47 -16 -92 -55 -101 -62 -14 -109 49 -76
100 17 25 31 30 60 19 18 -7 22 -49 6 -59 -18 -11 -32 5 -19 21 16 19 3 31
-19 18 -24 -16 -27 -42 -6 -65 22 -24 49 -24 74 1 27 27 25 53 -7 127 -22 50
-33 63 -50 63 -13 0 -23 4 -23 9 0 5 8 7 19 4 13 -3 24 6 40 32 12 21 21 38
19 39 -47 20 -86 47 -97 68 -15 25 -14 29 17 71 36 51 39 62 16 53 -9 -3 -20
-3 -25 0 -16 9 2 25 24 22 16 -2 23 -11 25 -33z m1580 -30 c356 -58 607 -315
654 -671 40 -299 -131 -621 -402 -757 -52 -26 -122 -54 -155 -63 -84 -22 -262
-30 -349 -14 -506 90 -785 637 -555 1091 77 154 204 278 359 353 29 14 55 24
58 22 11 -12 -40 -60 -93 -88 -120 -62 -244 -195 -304 -329 -86 -192 -81 -432
13 -615 48 -94 66 -119 138 -192 158 -160 396 -243 608 -213 175 25 293 78
406 184 172 160 253 354 242 571 -15 271 -175 511 -415 623 -107 49 -229 76
-335 71 -49 -1 -88 -1 -88 1 0 3 7 13 17 23 20 23 74 23 201 3z m30 -90 c311
-63 543 -345 542 -659 0 -111 -22 -206 -69 -301 -187 -378 -655 -500 -1005
-263 -119 79 -220 210 -266 341 -31 87 -39 285 -16 377 22 90 87 214 145 281
53 59 158 145 167 136 3 -3 -15 -19 -39 -36 -73 -50 -161 -154 -206 -244 -183
-363 5 -807 394 -930 59 -19 92 -22 215 -22 130 1 153 3 217 26 105 38 179 85
259 165 78 79 129 166 166 284 43 139 27 334 -39 464 -121 242 -342 380 -610
381 -55 0 -99 3 -96 8 8 13 161 8 241 -8z m-124 -97 c8 -29 17 -69 20 -88 6
-34 6 -34 -9 -13 -10 14 -23 20 -36 18 -26 -5 -25 -4 -33 -37 -5 -21 -3 -28 8
-28 8 0 18 5 21 11 5 7 14 4 26 -7 18 -16 19 -16 19 1 0 24 6 17 14 -20 7 -28
7 -29 -11 -13 -38 34 -83 22 -83 -24 0 -28 1 -28 21 -14 19 13 24 13 44 0 18
-12 24 -12 28 -2 3 7 6 3 6 -10 1 -14 10 -26 24 -32 l22 -9 -22 0 c-18 -1 -23
-7 -23 -30 0 -46 -12 -94 -20 -81 -5 9 -11 8 -21 -3 -12 -13 -16 -13 -31 0
-17 15 -18 14 -18 -10 0 -14 5 -29 10 -32 6 -4 8 -11 4 -16 -10 -16 7 -69 22
-69 8 0 14 6 14 14 0 8 3 22 6 31 5 12 2 16 -9 13 -9 -2 -16 2 -16 7 -1 6 4
10 10 10 6 0 17 8 24 19 13 17 14 15 8 -20 -3 -22 -14 -61 -23 -89 -15 -44
-18 -47 -27 -30 -12 23 -42 181 -45 240 -3 34 -7 41 -28 44 l-25 4 25 6 c23 6
25 12 32 86 9 107 37 225 52 225 3 0 12 -24 20 -52z m136 -251 c0 -7 -5 -18
-11 -24 -8 -8 -5 -31 10 -84 37 -136 37 -155 -4 -231 -20 -37 -46 -75 -58 -83
-31 -22 -64 -19 -70 7 -7 26 10 61 26 53 7 -4 5 0 -4 7 -14 11 -15 18 -5 36 9
17 15 19 23 11 9 -9 11 -7 6 9 -3 14 2 24 19 33 31 16 39 31 27 46 -12 14 -19
63 -9 63 3 0 6 30 6 68 -1 46 4 72 14 84 18 20 30 22 30 5z m-275 -54 c-3 -13
1 -50 10 -83 13 -52 14 -64 1 -93 -13 -33 -13 -34 16 -45 16 -6 27 -15 24 -20
-3 -6 1 -13 10 -16 10 -4 14 -14 11 -25 -3 -12 0 -18 7 -15 7 3 12 -6 14 -20
1 -14 3 -31 4 -37 2 -7 -10 -16 -27 -19 -45 -9 -83 22 -117 99 -28 60 -29 68
-17 105 7 23 12 44 11 48 -1 4 4 34 12 67 9 40 11 62 4 69 -6 6 -8 18 -4 28 6
16 8 15 27 -2 14 -12 18 -25 14 -41z m1636 -171 c-15 -28 -14 -64 5 -152 19
-90 13 -335 -11 -440 -19 -87 -19 -119 4 -163 21 -42 10 -50 -15 -11 -9 14
-20 21 -24 17 -4 -4 -20 -45 -36 -90 l-28 -82 19 -38 20 -38 3 55 c2 30 8 60
14 67 14 17 51 17 45 1 -2 -7 -11 -12 -21 -10 -14 2 -16 -9 -16 -82 0 -87 13
-136 37 -136 7 0 13 -11 13 -26 0 -18 -4 -25 -14 -21 -9 4 -16 -3 -20 -18 -3
-13 -20 -37 -37 -54 -25 -26 -39 -31 -76 -31 -53 0 -94 21 -117 61 -10 16 -22
26 -30 23 -8 -3 -17 -1 -21 5 -3 6 1 11 10 11 8 0 18 7 21 15 10 25 24 17 24
-13 0 -32 30 -69 67 -83 45 -17 74 -10 109 25 44 44 48 103 9 141 -45 46 -120
26 -113 -30 2 -25 7 -29 26 -27 22 3 30 -12 12 -23 -17 -10 -49 5 -55 26 -18
54 36 107 96 94 35 -8 36 -1 8 45 l-22 35 -15 -32 c-16 -34 -40 -47 -27 -15
21 52 26 74 21 87 -10 28 -23 15 -51 -50 -15 -36 -31 -63 -35 -60 -5 3 7 40
27 83 l35 79 -36 71 c-39 77 -40 82 -28 82 5 0 21 -27 37 -60 15 -32 32 -57
36 -55 4 3 17 43 30 90 12 47 26 85 31 85 14 0 9 -24 -22 -121 -30 -89 -32
-125 -9 -117 24 8 91 235 109 371 17 119 15 299 -4 380 -20 87 -20 116 1 139
20 23 28 17 14 -10z m-2991 -41 c0 -9 -7 -54 -15 -101 -25 -134 -21 -321 9
-470 26 -133 67 -262 85 -268 22 -7 21 46 -4 127 -25 86 -32 133 -16 115 4 -5
14 -37 21 -71 7 -35 18 -71 25 -80 11 -15 16 -11 39 35 40 79 49 62 11 -20
-36 -79 -35 -89 14 -186 12 -23 17 -42 12 -42 -8 0 -40 59 -54 103 -4 9 -11
17 -16 17 -19 0 -23 -47 -7 -78 23 -44 20 -52 -8 -17 l-23 29 -17 -31 c-23
-45 -21 -50 20 -45 47 6 84 -27 84 -74 0 -34 -29 -62 -50 -49 -18 11 -12 38 7
31 34 -13 43 34 13 64 -26 26 -60 25 -94 -1 -20 -16 -26 -29 -26 -60 0 -75 31
-108 101 -109 52 0 99 33 99 69 0 23 16 36 25 21 3 -5 15 -10 26 -10 16 0 19
5 14 19 -6 21 10 38 20 21 13 -21 24 -9 15 16 -6 14 -8 29 -6 32 2 4 -13 8
-34 10 -30 2 -42 -2 -53 -18 l-14 -21 -6 22 c-4 16 2 30 24 50 l31 29 -51 53
c-50 53 -62 82 -40 104 8 8 19 2 41 -23 17 -19 33 -32 36 -30 7 8 42 -13 42
-26 0 -6 -10 -3 -22 8 l-23 19 23 -26 c14 -17 20 -33 16 -45 -5 -16 -4 -16 5
-4 9 12 11 13 11 1 0 -8 3 -12 6 -9 3 4 0 17 -7 30 -11 21 -11 22 4 9 15 -12
17 -10 17 21 0 50 45 86 83 66 26 -13 20 -31 -16 -48 -23 -11 -33 -23 -35 -42
-4 -32 0 -34 33 -12 17 11 29 13 41 6 11 -6 13 -11 5 -16 -15 -10 -14 -51 3
-65 17 -14 43 -5 56 20 33 60 -17 179 -97 230 -62 39 -96 38 -139 -5 -26 -26
-34 -30 -37 -17 -2 9 3 28 10 43 15 31 74 52 120 43 25 -5 26 -5 5 4 -12 6
-58 15 -102 20 -44 6 -99 20 -122 32 -78 39 -114 88 -50 69 15 -4 61 -24 102
-44 41 -20 81 -34 88 -31 14 5 158 -58 185 -82 10 -10 25 -18 35 -19 9 -2 22
-11 30 -21 7 -10 19 -17 27 -15 7 1 16 -6 20 -17 3 -11 12 -18 19 -15 9 3 16
-5 21 -23 4 -15 10 -22 12 -15 8 20 23 3 23 -26 0 -18 3 -23 9 -14 11 18 34
-19 47 -73 13 -53 7 -79 -14 -69 -41 17 -60 15 -87 -8 -22 -20 -27 -30 -21
-51 12 -50 76 -43 76 9 0 26 10 30 28 12 17 -17 15 -38 -5 -62 l-18 -21 24 20
c12 11 34 39 47 62 33 55 82 76 54 22 -11 -20 -10 -21 6 -14 50 22 104 -10
104 -61 0 -27 -42 -59 -65 -50 -19 7 -20 36 0 36 8 0 15 -4 15 -10 0 -5 7 -10
15 -10 14 0 20 13 15 35 -1 6 -3 15 -4 22 -1 7 -6 16 -11 20 -4 4 -5 2 -1 -4
5 -10 -1 -11 -24 -7 -28 6 -36 0 -104 -70 l-73 -77 -54 3 c-45 2 -54 6 -57 23
-6 29 -28 51 -85 80 -46 25 -53 26 -94 14 -39 -11 -45 -10 -59 7 -13 18 -14
17 -8 -8 5 -24 2 -28 -23 -34 -15 -4 -42 -23 -58 -42 -24 -27 -40 -35 -76 -39
-61 -7 -102 15 -125 66 -10 22 -21 38 -26 35 -4 -3 -8 9 -8 26 0 17 4 29 9 25
19 -11 31 36 31 125 0 88 -1 91 -21 85 -15 -5 -20 -3 -17 6 3 8 12 15 21 17
22 4 37 -35 37 -96 l1 -47 20 39 21 39 -33 86 c-18 47 -34 88 -37 91 -2 3 -10
-4 -18 -15 -14 -19 -15 -18 -7 10 11 41 9 81 -11 206 -21 136 -21 297 0 386 9
38 14 90 11 117 -4 44 -3 48 9 31 8 -10 14 -26 14 -34z m1355 -233 c-10 -61
-9 -88 6 -130 16 -44 24 -47 33 -14 7 28 33 41 52 25 9 -8 14 -8 14 -1 0 15
-22 27 -42 24 -9 -2 -22 6 -27 17 -9 16 -8 22 6 30 14 8 15 10 3 11 -13 0 -13
1 0 10 8 5 10 10 5 10 -6 0 -11 9 -12 19 -2 21 22 31 77 31 31 0 80 -18 55
-21 -5 0 -1 -4 10 -9 l20 -9 -20 0 c-16 -1 -17 -3 -6 -10 19 -12 23 -41 6 -35
-14 6 -15 -12 -2 -33 6 -9 2 -13 -12 -13 -11 0 -23 -4 -26 -10 -4 -6 3 -9 16
-7 21 2 32 -10 43 -46 8 -26 26 -11 26 21 1 15 7 38 14 51 12 21 11 30 -5 65
-36 80 -21 87 35 15 l38 -50 -15 -56 c-21 -73 -41 -102 -84 -120 -29 -12 -41
-12 -58 -3 -13 7 -33 9 -45 5 -13 -4 -20 -3 -17 2 3 5 -9 7 -28 5 -45 -5 -71
11 -106 66 -36 56 -36 72 -3 121 14 21 26 48 27 60 1 11 8 21 15 21 12 0 13
-9 7 -42z m361 -153 c11 -16 14 -34 9 -55 -6 -27 -4 -31 24 -41 22 -8 34 -22
47 -55 9 -24 15 -46 13 -49 -3 -2 -42 4 -87 14 -55 12 -91 26 -107 41 -29 28
-32 39 -7 36 9 -2 17 -8 17 -14 0 -6 7 -17 15 -24 12 -11 12 -11 0 6 -13 18
-13 19 2 14 17 -7 20 14 3 29 -4 4 -5 2 0 -6 5 -9 4 -12 -3 -7 -9 5 -6 19 9
47 18 36 22 39 37 27 15 -12 15 -11 0 11 -16 23 -14 51 3 51 5 0 16 -11 25
-25z m-463 -12 c-4 -11 -3 -14 5 -9 8 5 12 0 12 -14 0 -12 -4 -19 -9 -15 -5 3
-13 0 -17 -6 -4 -8 -3 -9 4 -5 16 10 15 -6 0 -24 -11 -12 -10 -12 5 -1 10 8
17 9 17 3 0 -6 -10 -18 -22 -26 -15 -11 -18 -16 -8 -16 13 0 13 -2 0 -10 -8
-5 -10 -10 -4 -10 6 0 23 9 38 21 30 23 34 16 9 -15 -13 -15 -10 -14 10 3 15
14 27 20 27 13 0 -6 -12 -20 -26 -31 -15 -12 -22 -21 -17 -21 11 0 45 36 61
65 11 19 11 19 12 2 0 -11 -15 -34 -34 -53 -29 -29 -41 -34 -82 -35 -27 0 -61
-3 -76 -5 -21 -4 -28 -1 -28 12 0 33 31 81 63 95 22 10 31 20 29 32 -2 10 4
29 13 43 18 28 27 32 18 7z m787 -703 c0 -7 -193 -10 -559 -10 -363 0 -562 4
-566 10 -4 7 185 10 559 10 371 0 566 -3 566 -10z m-1634 -51 c33 -17 68 -38
79 -48 11 -10 29 -21 39 -25 15 -5 17 -9 7 -19 -9 -9 -15 -9 -29 1 -9 7 -24
15 -32 18 -8 4 -38 17 -67 30 l-52 23 -21 -34 c-11 -18 -32 -40 -45 -49 -14
-9 -25 -26 -25 -37 0 -19 1 -19 16 -5 20 21 31 20 43 -1 9 -15 10 -15 11 -2 0
8 -6 21 -12 28 -11 11 -10 13 5 8 10 -4 15 -3 12 2 -3 5 4 12 15 16 11 4 18
10 15 15 -11 19 18 21 66 5 46 -16 63 -40 28 -40 -8 0 -24 -10 -36 -22 -16
-16 -18 -24 -9 -33 8 -10 8 -11 -1 -6 -8 4 -13 2 -13 -5 0 -10 -3 -10 -12 -1
-7 7 -19 12 -27 11 -12 0 -10 -4 6 -16 18 -12 21 -19 12 -35 -15 -28 -6 -31
24 -8 14 11 40 20 59 20 31 0 41 -7 81 -60 26 -33 55 -60 64 -60 15 0 15 -2 4
-9 -12 -8 -12 -12 -2 -25 8 -9 10 -16 6 -16 -4 0 -33 28 -64 62 l-57 61 -46
-11 c-80 -20 -115 -16 -132 16 -8 15 -15 21 -16 13 0 -11 -5 -10 -19 5 -10 10
-17 22 -15 26 2 3 -4 4 -15 1 -22 -5 -40 36 -34 77 5 37 93 160 114 160 9 0
43 -14 75 -31z m2271 -31 c47 -64 63 -100 63 -137 0 -32 -30 -66 -38 -43 -3 9
-8 6 -16 -10 -7 -12 -20 -22 -29 -22 -11 1 -17 -6 -17 -17 0 -28 -17 -31 -101
-20 -86 10 -97 6 -167 -68 -24 -25 -39 -36 -33 -23 10 19 9 22 -6 22 -16 1
-16 2 2 12 11 6 46 35 77 64 60 58 94 67 132 39 27 -21 39 -19 26 4 -8 16 -6
23 12 36 l23 17 -27 -6 c-22 -5 -30 -1 -48 29 -12 19 -28 35 -37 35 -26 0 -9
21 33 39 35 16 43 16 59 5 10 -8 16 -14 12 -14 -4 0 -3 -9 3 -21 7 -12 18 -18
26 -15 11 4 12 2 4 -14 -15 -28 -12 -38 6 -15 12 17 17 18 35 7 38 -24 30 -5
-22 55 l-51 60 -57 -23 c-31 -13 -61 -24 -67 -24 -6 0 -17 -7 -24 -15 -12 -14
-30 -12 -30 4 0 7 83 61 155 100 41 22 63 13 102 -41z m-452 12 c11 -5 -310
-9 -747 -9 -506 -1 -768 2 -768 9 0 13 1486 13 1515 0z m-1271 -40 c83 -13
161 -54 229 -118 l57 -55 0 44 c0 106 112 175 183 112 22 -20 22 -61 0 -85
-22 -24 -48 -23 -73 4 -18 19 -22 20 -30 8 -17 -27 -11 -111 12 -158 20 -43
121 -152 140 -152 21 0 119 105 143 153 28 58 33 132 11 163 -14 18 -15 18
-25 -8 -16 -42 -75 -36 -92 8 -20 53 37 103 104 90 52 -10 89 -55 95 -116 2
-27 7 -50 9 -50 3 0 25 21 49 46 66 68 159 108 259 112 101 5 147 -7 224 -59
66 -44 106 -49 106 -14 0 13 -6 19 -18 19 -10 -1 -16 3 -14 9 6 20 26 19 44
-2 9 -12 27 -21 39 -21 22 0 39 -24 28 -41 -9 -14 -24 -10 -18 5 10 26 -15 27
-58 4 -24 -13 -44 -23 -46 -24 -1 0 5 -17 13 -37 17 -41 20 -87 5 -87 -5 0
-10 14 -10 30 0 65 -56 138 -140 181 -37 19 -61 23 -130 23 -78 1 -91 -3 -161
-37 -91 -43 -148 -102 -196 -199 -37 -74 -106 -155 -169 -199 -42 -29 -45 -29
-74 -14 -54 28 -145 128 -194 214 -64 112 -127 171 -224 211 -69 29 -83 32
-157 28 -91 -5 -127 -20 -185 -78 -27 -27 -45 -58 -59 -102 -15 -49 -19 -56
-20 -33 0 17 8 49 19 73 18 39 18 42 1 42 -9 0 -26 7 -37 15 -10 8 -30 15 -43
15 -19 0 -22 -4 -18 -21 3 -13 1 -19 -6 -16 -24 8 -12 41 18 52 17 5 37 19 46
29 10 12 22 17 32 13 23 -9 21 -26 -2 -20 -22 6 -34 -9 -25 -31 11 -28 58 -18
108 21 45 35 114 61 166 62 14 1 52 -3 84 -9z m0 -54 c26 -8 62 -26 80 -40 26
-19 36 -22 45 -13 10 9 16 7 29 -11 10 -13 32 -41 50 -62 17 -20 32 -41 32
-45 0 -14 -75 59 -87 84 -8 19 -12 21 -12 9 -1 -24 -5 -23 -54 11 -56 38 -108
64 -114 57 -3 -3 7 -10 23 -16 16 -6 53 -30 83 -52 l54 -41 -24 -13 c-29 -16
-20 -18 17 -4 23 9 33 6 68 -17 23 -15 46 -28 51 -28 6 0 24 -34 40 -75 42
-104 58 -125 98 -125 37 0 46 -28 11 -33 -36 -5 -80 43 -108 116 -38 99 -101
154 -163 145 -18 -3 -41 -2 -50 2 -17 6 -16 8 4 25 25 20 21 30 -13 30 -13 0
-45 19 -74 45 -40 36 -58 45 -88 46 -30 0 -33 2 -17 9 30 13 67 12 119 -4z
m1201 -18 c7 -8 6 -9 -3 -3 -8 4 -32 7 -54 7 -32 -1 -48 -8 -83 -41 -26 -24
-58 -42 -79 -46 -35 -7 -51 -25 -21 -25 8 0 15 -4 15 -10 0 -12 -45 -24 -69
-17 -44 11 -113 -58 -145 -146 -19 -50 -74 -117 -97 -117 -22 0 -42 17 -35 29
4 6 17 9 29 6 32 -9 61 27 103 126 19 46 50 100 68 119 19 19 40 48 47 64 17
37 35 43 42 15 5 -20 7 -20 52 15 26 19 64 38 84 42 20 3 41 7 46 8 17 4 89
-15 100 -26z m-2124 -58 c16 -22 28 -28 44 -24 13 3 27 -2 38 -14 19 -21 14
-52 -8 -52 -21 0 -28 19 -11 26 20 8 11 24 -14 24 -20 0 -60 -44 -60 -67 0 -9
7 -12 25 -7 31 8 32 -2 3 -25 -24 -20 -16 -45 12 -38 11 3 29 -2 40 -10 19
-13 22 -23 17 -59 -5 -50 17 -69 43 -37 12 14 30 18 82 18 41 0 63 -4 58 -9
-5 -5 -37 -9 -71 -8 -52 2 -60 0 -57 -16 3 -14 14 -17 58 -17 30 1 67 4 83 9
16 5 27 4 27 -2 0 -20 -87 -35 -142 -24 -32 6 -60 7 -70 1 -9 -5 -35 -9 -56
-9 -33 0 -45 6 -66 31 -30 36 -31 40 -10 84 21 44 15 87 -13 100 -30 13 -29
29 1 21 21 -5 25 -1 35 40 9 35 9 49 0 60 -18 22 -42 18 -34 -6 7 -23 -13 -28
-21 -5 -7 18 12 45 32 45 7 0 23 -13 35 -30z m2969 5 c16 -19 3 -55 -21 -55
-21 0 -27 26 -7 32 6 2 8 10 4 16 -5 9 -13 9 -27 2 -36 -20 -18 -123 19 -113
11 2 23 0 26 -6 4 -6 -1 -11 -11 -11 -11 0 -24 -5 -31 -12 -15 -15 -16 -64 -1
-73 5 -4 14 -18 20 -31 22 -59 -44 -125 -108 -110 -16 4 -74 8 -130 9 -65 1
-106 6 -114 14 -18 18 -4 27 20 13 26 -13 136 -9 136 5 0 6 -16 11 -35 13 -58
4 -100 12 -100 20 0 4 34 7 76 7 61 0 77 -3 85 -17 11 -20 34 -24 45 -7 3 6 1
16 -5 22 -16 16 -14 53 5 71 8 9 29 16 45 16 26 0 30 3 27 23 -2 14 -11 23
-25 25 -33 5 -29 24 4 20 34 -4 39 12 13 45 -21 26 -60 37 -60 17 0 -5 5 -10
10 -10 6 0 10 -7 10 -16 0 -9 -7 -14 -17 -12 -13 2 -18 13 -18 33 0 28 3 30
35 30 27 0 39 6 52 28 20 30 58 36 78 12z m-2022 -162 c-3 -26 0 -33 14 -33
10 0 18 -3 18 -6 0 -19 -26 -46 -55 -59 -38 -15 -44 -29 -19 -39 14 -5 15 -4
4 9 -7 8 -8 15 -2 15 16 0 33 -27 26 -44 -5 -14 -9 -14 -31 4 -14 11 -31 20
-38 20 -17 0 -27 -28 -13 -36 7 -4 8 -3 4 4 -4 7 -3 12 2 12 6 0 13 -7 16 -15
9 -25 -23 -30 -40 -6 -19 26 -40 27 -47 1 -6 -25 -24 -26 -31 -2 -4 10 -29 29
-56 42 -55 26 -104 70 -78 70 8 0 23 -10 34 -21 44 -49 142 -64 203 -31 47 26
73 75 69 135 -3 41 -1 45 10 30 7 -10 12 -33 10 -50z m1032 -81 c16 -24 62
-49 108 -58 40 -8 123 20 152 51 13 14 28 25 33 25 20 0 -39 -52 -80 -71 -23
-11 -47 -28 -53 -39 -14 -26 -30 -26 -37 0 -7 26 -28 26 -47 -1 -17 -25 -40
-16 -33 12 3 11 1 19 -3 19 -20 0 -40 -13 -40 -27 0 -20 -24 -11 -28 11 -2 10
4 26 14 37 12 14 14 19 4 19 -18 0 -60 40 -60 57 0 7 7 13 15 13 9 0 15 9 15
24 0 13 3 33 8 43 5 12 9 1 12 -37 3 -30 12 -65 20 -78z"/>
<path d="M1915 5528 c-53 -38 -116 -102 -140 -143 -37 -62 -59 -159 -46 -198
25 -70 96 -106 146 -73 31 20 33 61 5 76 -21 11 -23 8 -20 -27 1 -19 -4 -23
-29 -23 -68 0 -87 102 -37 203 25 52 135 167 159 167 5 0 37 -28 71 -62 92
-92 127 -198 91 -268 -15 -30 -54 -48 -74 -35 -6 3 -11 18 -11 32 0 21 -2 24
-15 13 -18 -15 -20 -51 -3 -68 17 -17 79 -15 105 3 12 8 29 35 39 60 15 40 15
53 5 100 -16 72 -78 163 -149 220 -31 24 -59 45 -62 45 -3 -1 -18 -10 -35 -22z"/>
<path d="M697 3276 c-51 -19 -100 -58 -149 -119 -42 -53 -108 -153 -108 -163
0 -3 20 -37 45 -75 116 -179 229 -248 329 -199 70 33 101 113 75 189 -13 36
-41 55 -69 46 -28 -9 -25 -40 5 -53 56 -25 37 -114 -31 -147 -49 -23 -94 -10
-157 45 -51 45 -147 170 -147 191 0 24 127 184 169 214 27 18 59 30 91 33 44
4 52 2 80 -26 41 -41 41 -83 -1 -121 -28 -26 -29 -29 -14 -45 23 -22 38 -20
65 9 20 21 24 36 24 81 -2 111 -102 179 -207 140z"/>
<path d="M3063 3260 c-63 -38 -88 -115 -60 -183 17 -40 56 -58 82 -37 21 18
19 29 -9 40 -72 27 -46 137 36 155 78 18 170 -47 258 -180 45 -67 47 -58 -32
-162 -107 -140 -209 -185 -277 -122 -42 39 -39 111 4 131 27 12 32 27 13 46
-36 36 -80 -6 -85 -81 -5 -71 18 -115 77 -145 101 -52 202 6 333 189 26 37 47
73 47 81 0 26 -94 160 -142 205 -90 81 -178 104 -245 63z"/>
<path d="M1894 3065 c-34 -23 -49 -69 -34 -105 13 -30 54 -60 84 -60 29 0 68
24 82 51 21 42 17 67 -15 100 -33 33 -82 39 -117 14z"/>
<path d="M1775 858 c-89 -70 -59 -223 71 -353 35 -35 73 -66 84 -70 27 -9 117
59 164 124 87 119 97 235 25 296 -39 32 -79 32 -109 0 -19 -21 -22 -30 -14
-43 18 -29 40 -26 39 5 0 37 25 41 61 9 26 -22 29 -31 29 -83 -1 -39 -8 -73
-23 -103 -28 -59 -128 -160 -159 -160 -29 0 -124 92 -152 148 -27 52 -37 127
-22 164 22 56 98 75 88 21 -3 -18 0 -23 12 -21 22 4 26 52 6 72 -23 22 -67 20
-100 -6z"/>
</g>
</svg>
